<?xml version="1.0" encoding="utf-8"?>
<!-- Generator: Adobe Illustrator 20.1.0, SVG Export Plug-In . SVG Version: 6.00 Build 0)  -->
<svg version="1.1" id="Layer_1" xmlns="http://www.w3.org/2000/svg" xmlns:xlink="http://www.w3.org/1999/xlink" x="0px" y="0px"
	 viewBox="0 0 333.2 335.9" style="enable-background:new 0 0 333.2 335.9;" xml:space="preserve">
<style type="text/css">
	.st0{fill:#FFFFFF;}
</style>
<path class="st0" d="M152.3,278.6c0,0,0,15.2,7,15.2H174c0,0,7,0,7-15.2V57.4c0,0,0-15.2-7-15.2h-14.8c0,0-7,0-7,15.2V278.6z"/>
<path class="st0" d="M277.2,182.3c0,0,15.2,0,15.2-7v-14.8c0,0,0-7-15.2-7H56.1c0,0-15.2,0-15.2,7v14.8c0,0,0,7,15.2,7H277.2z"/>
<g>
	<path class="st0" d="M327.9,8v319.9H8V8H327.9 M335.9,0H0v335.9h335.9V0L335.9,0z"/>
</g>
</svg>
