<?xml version="1.0" encoding="utf-8"?>
<!-- Generator: Adobe Illustrator 18.0.0, SVG Export Plug-In . SVG Version: 6.00 Build 0)  -->
<!DOCTYPE svg PUBLIC "-//W3C//DTD SVG 1.1//EN" "http://www.w3.org/Graphics/SVG/1.1/DTD/svg11.dtd">
<svg version="1.1" id="Layer_1" xmlns="http://www.w3.org/2000/svg" xmlns:xlink="http://www.w3.org/1999/xlink" x="0px" y="0px"
	 viewBox="0 0 333.2 335.9" enable-background="new 0 0 333.2 335.9" xml:space="preserve">
<path fill="#FFFFFF" d="M20.3,125.8c0,0-20.3,0-20.3,20.3v43.8c0,0,0,20.3,20.3,20.3h292.7c0,0,20.3,0,20.3-20.3v-43.8
	c0,0,0-20.3-20.3-20.3H20.3z"/>
<path fill="#FFFFFF" d="M124.8,315.7c0,0,0,20.3,20.3,20.3h43.1c0,0,20.3,0,20.3-20.3V20.3c0,0,0-20.3-20.3-20.3h-43.1
	c0,0-20.3,0-20.3,20.3V315.7z"/>
</svg>
