<?xml version="1.0" encoding="utf-8"?>
<!-- Generator: Adobe Illustrator 21.0.2, SVG Export Plug-In . SVG Version: 6.00 Build 0)  -->
<svg version="1.1" id="Layer_1" xmlns="http://www.w3.org/2000/svg" xmlns:xlink="http://www.w3.org/1999/xlink" x="0px" y="0px"
	 viewBox="0 0 800 190.473" style="enable-background:new 0 0 800 190.473;" xml:space="preserve">
<g>
	<path style="fill:#FFFFFF;" d="M100.576,7.961H0V0h100.576V7.961z"/>
	<path style="fill:#FFFFFF;" d="M112.323,17.086l53.103,141.932h-9.999L102.42,17.086H112.323z"/>
	<path style="fill:#FFFFFF;" d="M249.886,184.842h-82.519v-7.961h82.519V184.842z"/>
	<path style="fill:#FFFFFF;" d="M257.458,104.556c0-17.15,2.508-33.202,7.524-48.152c5.014-14.95,12.247-28.056,21.698-39.318h10.97
		c-9.579,11.78-16.926,25.129-22.037,40.046c-5.113,14.918-7.669,30.663-7.669,47.23c0,31.26,9.838,59.962,29.513,86.111H286.68
		c-9.514-11.004-16.763-23.85-21.746-38.541C259.949,137.24,257.458,121.448,257.458,104.556z"/>
	<path style="fill:#FFFFFF;" d="M332.207,20.825c7.556,14.714,16.304,38.575,19.089,52.892l-13.323,4.374
		c-2.783-13.919-11.135-37.58-18.691-53.09L332.207,20.825z M481.137,23.212c-0.596,1.789-2.585,2.585-5.17,2.585
		c-20.878,70.189-53.487,113.14-115.724,140.38c-1.989-2.784-6.561-8.152-9.545-10.936c60.845-25.65,92.064-65.617,111.748-137.994
		L481.137,23.212z M395.238,9.491c4.574,16.504,9.545,41.161,10.539,56.471l-14.117,2.187c-1.193-15.708-5.567-39.569-10.339-56.272
		L395.238,9.491z"/>
	<path style="fill:#FFFFFF;" d="M542.542,104.556c0,17.023-2.509,32.878-7.524,47.57c-5.016,14.692-12.248,27.474-21.698,38.347
		h-10.776c19.674-26.148,29.513-54.851,29.513-86.111c0-16.633-2.558-32.409-7.669-47.327c-5.113-14.917-12.46-28.234-22.037-39.949
		h10.97c9.514,11.326,16.761,24.481,21.746,39.463C540.05,71.534,542.542,87.535,542.542,104.556z"/>
	<path style="fill:#FFFFFF;" d="M632.633,184.842h-82.519v-7.961h82.519V184.842z"/>
	<path style="fill:#FFFFFF;" d="M697.677,17.086l-52.909,141.932h-10.096l52.812-141.932H697.677z"/>
	<path style="fill:#FFFFFF;" d="M800,7.961H699.424V0H800V7.961z"/>
</g>
</svg>
