<?xml version="1.0" encoding="utf-8"?>
<!-- Generator: Adobe Illustrator 18.0.0, SVG Export Plug-In . SVG Version: 6.00 Build 0)  -->
<!DOCTYPE svg PUBLIC "-//W3C//DTD SVG 1.1//EN" "http://www.w3.org/Graphics/SVG/1.1/DTD/svg11.dtd">
<svg version="1.1" id="Layer_1" xmlns="http://www.w3.org/2000/svg" xmlns:xlink="http://www.w3.org/1999/xlink" x="0px" y="0px"
	 viewBox="0 0 333.2 335.9" enable-background="new 0 0 333.2 335.9" xml:space="preserve">
<polyline fill="#FFFFFF" points="33.3,299.9 97.6,279.6 333.2,44 289.2,0 53.6,235.6 33.3,299.9 "/>
<g>
	<path fill="#FFFFFF" d="M188,105.8v212.1H17.7V105.8H188 M189.6,87.8H16.1c0,0-16.4,0-16.4,16.4v215.3c0,0,0,16.4,16.4,16.4h173.6
		c0,0,16.4,0,16.4-16.4V104.2C206,104.2,206,87.8,189.6,87.8L189.6,87.8z"/>
</g>
<rect x="-7.2" y="0" fill="none" width="362.4" height="344.3"/>
<rect x="-7.2" y="0" fill="none" width="362.3" height="344.3"/>
</svg>
