400 0 2 0        
7 Unknown 13 ACIS 5.0.1 NT 24 Tue Apr 11 21:04:46 2017
1 9.9999999999999995e-007 1e-010 
-0 body $-1 $3 $-1 $2 #                                                                                            
-1 body $-1 $116 $-1 $115 #                                                                                        
-2 transform $-1 1 0 0 0 1 0 0 0 1 0 0 0 1 0 0 0 #
-3 lump $-1 $-1 $4 $0 #
-4 shell $-1 $-1 $-1 $5 $-1 $3 #
-5 face $-1 $16 $7 $4 $-1 $6 forward single #
-6 spline-surface $-1 forward { exactsur nurbs 2 1 both open open none none 3 2
        0 2 31.415926535897931 2 62.831853071795862 2 
        0 1 20 1 
        0 -60 0 1 
        0 -80 0 0.70710678118654757 
        -20 -80 0 1 
        -40 -80 0 0.70710678118654757 
        -40 -60 0 1 
        0 -60 -20 1 
        0 -80 -20 0.70710678118654757 
        -20 -80 -20 1 
        -40 -80 -20 0.70710678118654757 
        -40 -60 -20 1 
        0
        0
        0
        0
        0
        0
        0
        F 0 F 62.831853071795862 F 0 F 20 } F 0 F 62.831853071795862 F 0 F 20 #
-7 loop $-1 $-1 $8 $5 #
-8 coedge $-1 $10 $14 $62 $87 forward $7 $9 #
-9 pcurve $-1 0 forward { exppc nubs 1 open 2
        0 1 20 1 
        62.831853071795862 0 
        62.831853071795862 20 
        0
        spline 0 { ref 0 } F 0 F 62.831853071795862 F 0 F 20 
        } 0 0 #
-10 coedge $-1 $12 $8 $31 $79 reversed $7 $11 #
-11 pcurve $-1 0 forward { exppc nubs 1 open 2
        -62.831853071795862 1 0 1 
        62.831853071795862 20 
        0 20 
        0
        spline 0 { ref 0 } F 0 F 62.831853071795862 F 0 F 20 
        } 0 0 #
-12 coedge $-1 $14 $10 $58 $77 reversed $7 $13 #
-13 pcurve $-1 0 forward { exppc nubs 1 open 2
        -20 1 0 1 
        0 20 
        0 0 
        0
        spline 0 { ref 0 } F 0 F 62.831853071795862 F 0 F 20 
        } 0 0 #
-14 coedge $-1 $8 $12 $21 $75 forward $7 $15 #
-15 pcurve $-1 0 forward { exppc nubs 1 open 2
        0 1 62.831853071795862 1 
        0 0 
        62.831853071795862 0 
        0
        spline 0 { ref 0 } F 0 F 62.831853071795862 F 0 F 20 
        } 0 0 #
-16 face $-1 $28 $18 $4 $-1 $17 forward single #
-17 spline-surface $-1 forward { exactsur nubs 1 1 open open none none 2 2
        -20.399999999999999 1 20.399999999999999 1 
        -20.399999999999999 1 20.399999999999999 1 
        -40.399999999999999 -39.600000000000001 0 
        -40.399999999999999 -80.400000000000006 0 
        0.39999999999999858 -39.600000000000001 0 
        0.39999999999999858 -80.400000000000006 0 
        0
        0
        0
        0
        0
        0
        0
        F -20.399999999999999 F 20.399999999999999 F -20.399999999999999 F 20.399999999999999 } F -20.399999999999999 F 20.399999999999999 F -20.399999999999999 F 20.399999999999999 #
-18 loop $-1 $23 $19 $16 #
-19 coedge $-1 $21 $21 $56 $89 reversed $18 $20 #
-20 pcurve $-1 0 forward { exppc nurbs 2 open 3
        -125.66370614359172 2 -94.247779607693786 2 -62.831853071795862 2 
        0 20 1 
        -20.000000000000004 19.999999999999993 0.70710678118654757 
        -20 -3.6739403974420592e-15 1 
        -19.999999999999996 -20.000000000000004 0.70710678118654757 
        2.4492935982947065e-15 -20 1 
        0
        spline 0 { ref 5 } F -20.399999999999999 F 20.399999999999999 F -20.399999999999999 F 20.399999999999999 
        } 0 0 #
-21 coedge $-1 $19 $19 $14 $75 reversed $18 $22 #
-22 pcurve $-1 0 forward { exppc nurbs 2 open 3
        -62.831853071795862 2 -31.415926535897931 2 -0 2 
        2.4492935982947065e-15 -20 1 
        20 -19.999999999999996 0.70710678118654757 
        20 1.2246467991473533e-15 1 
        19.999999999999996 20 0.70710678118654757 
        0 20 1 
        0
        spline 0 { ref 5 } F -20.399999999999999 F 20.399999999999999 F -20.399999999999999 F 20.399999999999999 
        } 0 0 #
-23 loop $-1 $-1 $24 $16 #
-24 coedge $-1 $26 $26 $45 $97 reversed $23 $25 #
-25 pcurve $-1 0 forward { exppc nurbs 2 open 3
        0 2 31.415926535897931 2 62.831853071795862 2 
        0 19 1 
        18.999999999999996 19 0.70710678118654757 
        19 1.1634144591899855e-15 1 
        19 -18.999999999999996 0.70710678118654757 
        2.326828918379971e-15 -19 1 
        0
        spline 0 { ref 5 } F -20.399999999999999 F 20.399999999999999 F -20.399999999999999 F 20.399999999999999 
        } 0 0 #
-26 coedge $-1 $24 $24 $73 $83 reversed $23 $27 #
-27 pcurve $-1 0 forward { exppc nurbs 2 open 3
        62.831853071795862 2 94.247779607693786 2 125.66370614359172 2 
        2.326828918379971e-15 -19 1 
        -18.999999999999996 -19.000000000000004 0.70710678118654757 
        -19 -3.4902433775699565e-15 1 
        -19.000000000000004 18.999999999999993 0.70710678118654757 
        0 19 1 
        0
        spline 0 { ref 5 } F -20.399999999999999 F 20.399999999999999 F -20.399999999999999 F 20.399999999999999 
        } 0 0 #
-28 face $-1 $35 $30 $4 $-1 $29 forward single #
-29 spline-surface $-1 forward { exactsur nubs 1 1 open open none none 2 2
        -20.399999999999999 1 20.399999999999999 1 
        -20.399999999999999 1 20.399999999999999 1 
        -40.399999999999999 -39.600000000000001 -20 
        0.39999999999999858 -39.600000000000001 -20 
        -40.399999999999999 -80.400000000000006 -20 
        0.39999999999999858 -80.400000000000006 -20 
        0
        0
        0
        0
        0
        0
        0
        F -20.399999999999999 F 20.399999999999999 F -20.399999999999999 F 20.399999999999999 } F -20.399999999999999 F 20.399999999999999 F -20.399999999999999 F 20.399999999999999 #
-30 loop $-1 $-1 $31 $28 #
-31 coedge $-1 $33 $33 $10 $79 forward $30 $32 #
-32 pcurve $-1 0 forward { exppc nurbs 2 open 3
        0 2 31.415926535897931 2 62.831853071795862 2 
        20 0 1 
        20 19.999999999999996 0.70710678118654757 
        1.2246467991473533e-15 20 1 
        -19.999999999999996 20 0.70710678118654757 
        -20 2.4492935982947065e-15 1 
        0
        spline 0 { ref 10 } F -20.399999999999999 F 20.399999999999999 F -20.399999999999999 F 20.399999999999999 
        } 0 0 #
-33 coedge $-1 $31 $31 $60 $91 forward $30 $34 #
-34 pcurve $-1 0 forward { exppc nurbs 2 open 3
        62.831853071795862 2 94.247779607693786 2 125.66370614359172 2 
        -20 2.4492935982947065e-15 1 
        -20.000000000000004 -19.999999999999996 0.70710678118654757 
        -3.6739403974420592e-15 -20 1 
        19.999999999999993 -20.000000000000004 0.70710678118654757 
        20 0 1 
        0
        spline 0 { ref 10 } F -20.399999999999999 F 20.399999999999999 F -20.399999999999999 F 20.399999999999999 
        } 0 0 #
-35 face $-1 $42 $37 $4 $-1 $36 forward single #
-36 spline-surface $-1 forward { exactsur nubs 1 1 open open none none 2 2
        -19.379999999999999 1 19.379999999999999 1 
        -19.379999999999999 1 19.379999999999999 1 
        -39.379999999999995 -40.620000000000005 -19 
        -39.379999999999995 -79.379999999999995 -19 
        -0.62000000000000099 -40.620000000000005 -19 
        -0.62000000000000099 -79.379999999999995 -19 
        0
        0
        0
        0
        0
        0
        0
        F -19.379999999999999 F 19.379999999999999 F -19.379999999999999 F 19.379999999999999 } F -19.379999999999999 F 19.379999999999999 F -19.379999999999999 F 19.379999999999999 #
-37 loop $-1 $-1 $38 $35 #
-38 coedge $-1 $40 $40 $69 $95 reversed $37 $39 #
-39 pcurve $-1 0 forward { exppc nurbs 2 open 3
        -125.66370614359172 2 -94.247779607693786 2 -62.831853071795862 2 
        0 19 1 
        -19.000000000000004 18.999999999999993 0.70710678118654757 
        -19 -3.4902433775699565e-15 1 
        -18.999999999999996 -19.000000000000004 0.70710678118654757 
        2.326828918379971e-15 -19 1 
        0
        spline 0 { ref 13 } F -19.379999999999999 F 19.379999999999999 F -19.379999999999999 F 19.379999999999999 
        } 0 0 #
-40 coedge $-1 $38 $38 $49 $81 reversed $37 $41 #
-41 pcurve $-1 0 forward { exppc nurbs 2 open 3
        -62.831853071795862 2 -31.415926535897931 2 -0 2 
        2.326828918379971e-15 -19 1 
        19 -18.999999999999996 0.70710678118654757 
        19 1.1634144591899855e-15 1 
        18.999999999999996 19 0.70710678118654757 
        0 19 1 
        0
        spline 0 { ref 13 } F -19.379999999999999 F 19.379999999999999 F -19.379999999999999 F 19.379999999999999 
        } 0 0 #
-42 face $-1 $53 $44 $4 $-1 $43 forward single #
-43 spline-surface $-1 forward { exactsur nurbs 1 2 both open open none none 2 3
        0.99999999999999645 1 20 1 
        0 2 31.415926535897931 2 62.831853071795862 2 
        -1 -60 3.5527136788005009e-15 1 
        -1 -60 -19 1 
        -0.99999999999999811 -79 3.9252311467094378e-15 0.70710678118654746 
        -0.999999999999998 -78.999999999999986 -19 0.70710678118654757 
        -20 -79 3.5527136788005009e-15 1 
        -20 -79 -19 1 
        -39 -79.000000000000014 3.9252311467094378e-15 0.70710678118654746 
        -38.999999999999993 -79 -19 0.70710678118654757 
        -39 -60 3.5527136788005009e-15 1 
        -39 -60 -19 1 
        0
        0
        0
        0
        0
        0
        0
        F 0.99999999999999645 F 20 F 0 F 62.831853071795862 } F 0.99999999999999645 F 20 F 0 F 62.831853071795862 #
-44 loop $-1 $-1 $45 $42 #
-45 coedge $-1 $47 $51 $24 $97 forward $44 $46 #
-46 pcurve $-1 0 forward { exppc nubs 1 open 2
        -62.831853071795862 1 0 1 
        0.99999999999999645 62.831853071795862 
        0.99999999999999645 0 
        0
        spline 0 { ref 16 } F 0.99999999999999645 F 20 F 0 F 62.831853071795862 
        } 0 0 #
-47 coedge $-1 $49 $45 $71 $85 forward $44 $48 #
-48 pcurve $-1 0 forward { exppc nubs 1 open 2
        1 1 20 1 
        0.99999999999999645 0 
        20 0 
        0
        spline 0 { ref 16 } F 0.99999999999999645 F 20 F 0 F 62.831853071795862 
        } 0 0 #
-49 coedge $-1 $51 $47 $40 $81 forward $44 $50 #
-50 pcurve $-1 0 forward { exppc nubs 1 open 2
        -0 1 62.831853071795862 1 
        20 0 
        20 62.831853071795862 
        0
        spline 0 { ref 16 } F 0.99999999999999645 F 20 F 0 F 62.831853071795862 
        } 0 0 #
-51 coedge $-1 $45 $49 $67 $93 reversed $44 $52 #
-52 pcurve $-1 0 forward { exppc nubs 1 open 2
        -20 1 -0.99999999999999645 1 
        20 62.831853071795862 
        0.99999999999999645 62.831853071795862 
        0
        spline 0 { ref 16 } F 0.99999999999999645 F 20 F 0 F 62.831853071795862 
        } 0 0 #
-53 face $-1 $64 $55 $4 $-1 $54 forward single #
-54 spline-surface $-1 forward { exactsur nurbs 2 1 both open open none none 3 2
        62.831853071795862 2 94.247779607693786 2 125.66370614359172 2 
        0 1 20 1 
        -40 -60 0 1 
        -40.000000000000007 -40 0 0.70710678118654757 
        -20.000000000000004 -40 0 1 
        -5.0242958677880797e-15 -40 0 0.70710678118654757 
        0 -60 0 1 
        -40 -60 -20 1 
        -40.000000000000007 -40 -20 0.70710678118654757 
        -20.000000000000004 -40 -20 1 
        -5.0242958677880797e-15 -40 -20 0.70710678118654757 
        0 -60 -20 1 
        0
        0
        0
        0
        0
        0
        0
        F 62.831853071795862 F 125.66370614359172 F 0 F 20 } F 62.831853071795862 F 125.66370614359172 F 0 F 20 #
-55 loop $-1 $-1 $56 $53 #
-56 coedge $-1 $58 $62 $19 $89 forward $55 $57 #
-57 pcurve $-1 0 forward { exppc nubs 1 open 2
        62.831853071795862 1 125.66370614359172 1 
        62.831853071795862 0 
        125.66370614359172 0 
        0
        spline 0 { ref 21 } F 62.831853071795862 F 125.66370614359172 F 0 F 20 
        } 0 0 #
-58 coedge $-1 $60 $56 $12 $77 forward $55 $59 #
-59 pcurve $-1 0 forward { exppc nubs 1 open 2
        0 1 20 1 
        125.66370614359172 0 
        125.66370614359172 20 
        0
        spline 0 { ref 21 } F 62.831853071795862 F 125.66370614359172 F 0 F 20 
        } 0 0 #
-60 coedge $-1 $62 $58 $33 $91 reversed $55 $61 #
-61 pcurve $-1 0 forward { exppc nubs 1 open 2
        -125.66370614359172 1 -62.831853071795862 1 
        125.66370614359172 20 
        62.831853071795862 20 
        0
        spline 0 { ref 21 } F 62.831853071795862 F 125.66370614359172 F 0 F 20 
        } 0 0 #
-62 coedge $-1 $56 $60 $8 $87 reversed $55 $63 #
-63 pcurve $-1 0 forward { exppc nubs 1 open 2
        -20 1 -0 1 
        62.831853071795862 20 
        62.831853071795862 0 
        0
        spline 0 { ref 21 } F 62.831853071795862 F 125.66370614359172 F 0 F 20 
        } 0 0 #
-64 face $-1 $-1 $66 $4 $-1 $65 forward single #
-65 spline-surface $-1 forward { exactsur nurbs 1 2 both open open none none 2 3
        0.99999999999999645 1 20 1 
        62.831853071795862 2 94.247779607693786 2 125.66370614359172 2 
        -39 -60 3.5527136788005009e-15 1 
        -39 -60 -19 1 
        -39.000000000000007 -41.000000000000014 3.9252311467094378e-15 0.70710678118654746 
        -39 -41.000000000000007 -19 0.70710678118654757 
        -20.000000000000004 -41 3.5527136788005009e-15 1 
        -20.000000000000004 -41 -19 1 
        -1.0000000000000082 -41 3.9252311467094378e-15 0.70710678118654746 
        -1.000000000000008 -41 -19 0.70710678118654757 
        -1 -60 3.5527136788005009e-15 1 
        -1 -60 -19 1 
        0
        0
        0
        0
        0
        0
        0
        F 0.99999999999999645 F 20 F 62.831853071795862 F 125.66370614359172 } F 0.99999999999999645 F 20 F 62.831853071795862 F 125.66370614359172 #
-66 loop $-1 $-1 $67 $64 #
-67 coedge $-1 $69 $73 $51 $93 forward $66 $68 #
-68 pcurve $-1 0 forward { exppc nubs 1 open 2
        0.99999999999999645 1 20 1 
        0.99999999999999645 62.831853071795862 
        20 62.831853071795862 
        0
        spline 0 { ref 26 } F 0.99999999999999645 F 20 F 62.831853071795862 F 125.66370614359172 
        } 0 0 #
-69 coedge $-1 $71 $67 $38 $95 forward $66 $70 #
-70 pcurve $-1 0 forward { exppc nubs 1 open 2
        62.831853071795862 1 125.66370614359172 1 
        20 62.831853071795862 
        20 125.66370614359172 
        0
        spline 0 { ref 26 } F 0.99999999999999645 F 20 F 62.831853071795862 F 125.66370614359172 
        } 0 0 #
-71 coedge $-1 $73 $69 $47 $85 reversed $66 $72 #
-72 pcurve $-1 0 forward { exppc nubs 1 open 2
        -20 1 -1 1 
        20 125.66370614359172 
        0.99999999999999645 125.66370614359172 
        0
        spline 0 { ref 26 } F 0.99999999999999645 F 20 F 62.831853071795862 F 125.66370614359172 
        } 0 0 #
-73 coedge $-1 $67 $71 $26 $83 forward $66 $74 #
-74 pcurve $-1 0 forward { exppc nubs 1 open 2
        -125.66370614359172 1 -62.831853071795862 1 
        0.99999999999999645 125.66370614359172 
        0.99999999999999645 62.831853071795862 
        0
        spline 0 { ref 26 } F 0.99999999999999645 F 20 F 62.831853071795862 F 125.66370614359172 
        } 0 0 #
-75 edge $-1 $99 $107 $14 $76 forward #
-76 intcurve-curve $-1 forward { exactcur nurbs 2 open 3
        0 2 31.415926535897931 2 62.831853071795862 2 
        0 -60 0 1 
        0 -80 0 0.70710678118654757 
        -20 -80 0 1 
        -40 -80 0 0.70710678118654757 
        -40 -60 0 1 
        0
        null_surface
        null_surface
        nullbs
        nullbs
        I I
        0
        0
        0
        F 0 F 62.831853071795862 } F 0 F 62.831853071795862 #
-77 edge $-1 $99 $101 $58 $78 forward #
-78 intcurve-curve $-1 forward { exactcur nurbs 1 open 2
        0 1 20 1 
        0 -60 0 1 
        0 -60 -20 1 
        0
        null_surface
        null_surface
        nullbs
        nullbs
        I I
        0
        0
        0
        F 0 F 20 } F 0 F 20 #
-79 edge $-1 $101 $109 $10 $80 forward #
-80 intcurve-curve $-1 forward { exactcur nurbs 2 open 3
        0 2 31.415926535897931 2 62.831853071795862 2 
        0 -60 -20 1 
        0 -80 -20 0.70710678118654757 
        -20 -80 -20 1 
        -40 -80 -20 0.70710678118654757 
        -40 -60 -20 1 
        0
        null_surface
        null_surface
        nullbs
        nullbs
        I I
        0
        0
        0
        F 0 F 62.831853071795862 } F 0 F 62.831853071795862 #
-81 edge $-1 $103 $113 $49 $82 forward #
-82 intcurve-curve $-1 forward { exactcur nurbs 2 open 3
        0 2 31.415926535897931 2 62.831853071795862 2 
        -1 -60 -19 1 
        -0.999999999999998 -78.999999999999986 -19 0.70710678118654757 
        -20 -79 -19 1 
        -38.999999999999993 -79 -19 0.70710678118654757 
        -39 -60 -19 1 
        0
        null_surface
        null_surface
        nullbs
        nullbs
        I I
        0
        0
        0
        F 0 F 62.831853071795862 } F 0 F 62.831853071795862 #
-83 edge $-1 $105 $111 $73 $84 forward #
-84 intcurve-curve $-1 forward { exactcur nurbs 2 open 3
        -125.66370614359172 2 -94.247783352764515 2 -62.831853071795862 2 
        -1.0000000000000036 -60 0 1 
        -1.0000064063203431 -41 0 0.70710690039583535 
        -20.000000000000004 -41 3.5527136788005009e-15 1 
        -39 -41.000000000000007 2.5121479338940399e-15 0.70710678118654757 
        -39 -60 3.5527136788005009e-15 1 
        0
        null_surface
        null_surface
        nullbs
        nullbs
        I I
        0
        0
        0
        F -125.66370614359172 F -62.831853071795862 } F -125.66370614359172 F -62.831853071795862 #
-85 edge $-1 $105 $103 $71 $86 forward #
-86 intcurve-curve $-1 forward { exactcur nurbs 1 open 2
        1 1 20 1 
        -1 -60 0 1 
        -1 -60 -19 1 
        0
        null_surface
        null_surface
        nullbs
        nullbs
        I I
        0
        0
        0
        F 1 F 20 } F 1 F 20 #
-87 edge $-1 $107 $109 $8 $88 forward #
-88 intcurve-curve $-1 forward { exactcur nurbs 1 open 2
        0 1 20 1 
        -40 -60 0 1 
        -40 -60 -20 1 
        0
        null_surface
        null_surface
        nullbs
        nullbs
        I I
        0
        0
        0
        F 0 F 20 } F 0 F 20 #
-89 edge $-1 $107 $99 $56 $90 forward #
-90 intcurve-curve $-1 forward { exactcur nurbs 2 open 3
        62.831853071795862 2 94.247779607693786 2 125.66370614359172 2 
        -40 -60 0 1 
        -40.000000000000007 -40 0 0.70710678118654757 
        -20.000000000000004 -40 0 1 
        -5.0242958677880797e-15 -40 0 0.70710678118654757 
        0 -60 0 1 
        0
        null_surface
        null_surface
        nullbs
        nullbs
        I I
        0
        0
        0
        F 62.831853071795862 F 125.66370614359172 } F 62.831853071795862 F 125.66370614359172 #
-91 edge $-1 $109 $101 $60 $92 forward #
-92 intcurve-curve $-1 forward { exactcur nurbs 2 open 3
        62.831853071795862 2 94.247779607693786 2 125.66370614359172 2 
        -40 -60 -20 1 
        -40.000000000000007 -40 -20 0.70710678118654757 
        -20.000000000000004 -40 -20 1 
        -5.0242958677880797e-15 -40 -20 0.70710678118654757 
        0 -60 -20 1 
        0
        null_surface
        null_surface
        nullbs
        nullbs
        I I
        0
        0
        0
        F 62.831853071795862 F 125.66370614359172 } F 62.831853071795862 F 125.66370614359172 #
-93 edge $-1 $111 $113 $51 $94 forward #
-94 intcurve-curve $-1 forward { exactcur nurbs 1 open 2
        0.99999999999999645 1 20 1 
        -39 -60 3.5527136788005009e-15 1 
        -39 -60 -19 1 
        0
        null_surface
        null_surface
        nullbs
        nullbs
        I I
        0
        0
        0
        F 0.99999999999999645 F 20 } F 0.99999999999999645 F 20 #
-95 edge $-1 $113 $103 $69 $96 forward #
-96 intcurve-curve $-1 forward { exactcur nurbs 2 open 3
        62.831853071795862 2 94.247779607693786 2 125.66370614359172 2 
        -39 -60 -19 1 
        -39 -41.000000000000007 -19 0.70710678118654757 
        -20.000000000000004 -41 -19 1 
        -1.000000000000008 -41 -19 0.70710678118654757 
        -1 -60 -19 1 
        0
        null_surface
        null_surface
        nullbs
        nullbs
        I I
        0
        0
        0
        F 62.831853071795862 F 125.66370614359172 } F 62.831853071795862 F 125.66370614359172 #
-97 edge $-1 $111 $105 $45 $98 forward #
-98 intcurve-curve $-1 forward { exactcur nurbs 2 open 3
        -62.831853071795862 2 -31.415922790827203 2 0 2 
        -39 -60 3.5527136788005009e-15 1 
        -38.999999999999993 -79 2.5121479338940399e-15 0.70710678118654757 
        -20 -79 3.5527136788005009e-15 1 
        -1.0000064063203431 -79 2.512147685803858e-15 0.70710690039583546 
        -1.0000000000000036 -60 0 1 
        0
        null_surface
        null_surface
        nullbs
        nullbs
        I I
        0
        0
        0
        F -62.831853071795862 F 0 } F -62.831853071795862 F 0 #
-99 vertex $-1 $75 $100 #
-100 point $-1 0 -60 0 #
-101 vertex $-1 $77 $102 #
-102 point $-1 0 -60 -20 #
-103 vertex $-1 $81 $104 #
-104 point $-1 -1 -60 -19 #
-105 vertex $-1 $83 $106 #
-106 point $-1 -1 -60 0 #
-107 vertex $-1 $87 $108 #
-108 point $-1 -40 -60 0 #
-109 vertex $-1 $87 $110 #
-110 point $-1 -40 -60 -20 #
-111 vertex $-1 $93 $112 #
-112 point $-1 -39 -60 3.5527136788005009e-15 #
-113 vertex $-1 $93 $114 #
-114 point $-1 -39 -60 -19 #
-115 transform $-1 1 0 0 0 1 0 0 0 1 0 0 0 1 0 0 0 #
-116 lump $-1 $-1 $117 $1 #
-117 shell $-1 $-1 $-1 $118 $-1 $116 #
-118 face $-1 $129 $120 $117 $-1 $119 forward single #
-119 spline-surface $-1 forward { exactsur nurbs 2 1 both open open none none 3 2
        -125.66370614359172 2 -94.247779607693786 2 -62.831853071795862 2 
        0 1 1 1 
        0 -60 0 1 
        -5.0242958677880797e-15 -39.999999999999993 0 0.70710678118654757 
        -20.000000000000004 -40 0 1 
        -40.000000000000007 -40 0 0.70710678118654757 
        -40 -60 0 1 
        0 -60 1 1 
        -5.0242958677880797e-15 -39.999999999999993 1 0.70710678118654757 
        -20.000000000000004 -40 1 1 
        -40.000000000000007 -40 1 0.70710678118654757 
        -40 -60 1 1 
        0
        0
        0
        0
        0
        0
        0
        F -125.66370614359172 F -62.831853071795862 F 0 F 1 } F -125.66370614359172 F -62.831853071795862 F 0 F 1 #
-120 loop $-1 $-1 $121 $118 #
-121 coedge $-1 $123 $127 $152 $160 forward $120 $122 #
-122 pcurve $-1 0 forward { exppc nubs 1 open 2
        0 1 1 1 
        -62.831853071795862 0 
        -62.831853071795862 1 
        0
        spline 0 { ref 43 } F -125.66370614359172 F -62.831853071795862 F 0 F 1 
        } 0 0 #
-123 coedge $-1 $125 $121 $139 $158 reversed $120 $124 #
-124 pcurve $-1 0 forward { exppc nubs 1 open 2
        62.831853071795862 1 125.66370614359172 1 
        -62.831853071795862 1 
        -125.66370614359172 1 
        0
        spline 0 { ref 43 } F -125.66370614359172 F -62.831853071795862 F 0 F 1 
        } 0 0 #
-125 coedge $-1 $127 $123 $148 $156 reversed $120 $126 #
-126 pcurve $-1 0 forward { exppc nubs 1 open 2
        -1 1 0 1 
        -125.66370614359172 1 
        -125.66370614359172 0 
        0
        spline 0 { ref 43 } F -125.66370614359172 F -62.831853071795862 F 0 F 1 
        } 0 0 #
-127 coedge $-1 $121 $125 $134 $154 forward $120 $128 #
-128 pcurve $-1 0 forward { exppc nubs 1 open 2
        -125.66370614359172 1 -62.831853071795862 1 
        -125.66370614359172 0 
        -62.831853071795862 0 
        0
        spline 0 { ref 43 } F -125.66370614359172 F -62.831853071795862 F 0 F 1 
        } 0 0 #
-129 face $-1 $136 $131 $117 $-1 $130 forward single #
-130 spline-surface $-1 forward { exactsur nubs 1 1 open open none none 2 2
        -20.399999999999999 1 20.399999999999999 1 
        -0.40000000000000002 1 40.399999999999999 1 
        0.40000000000000002 -39.600000000000001 0 
        0.40000000000000002 -80.400000000000006 0 
        -40.399999999999999 -39.600000000000001 0 
        -40.399999999999999 -80.400000000000006 0 
        0
        0
        0
        0
        0
        0
        0
        F -20.399999999999999 F 20.399999999999999 F -0.40000000000000002 F 40.399999999999999 } F -20.399999999999999 F 20.399999999999999 F -0.40000000000000002 F 40.399999999999999 #
-131 loop $-1 $-1 $132 $129 #
-132 coedge $-1 $134 $134 $146 $162 reversed $131 $133 #
-133 pcurve $-1 0 forward { exppc nurbs 2 open 3
        0 2 31.415926535897931 2 62.831853071795862 2 
        0 0 1 
        19.999999999999996 0 0.70710678118654757 
        20 20 1 
        20 40 0.70710678118654757 
        2.4492935982947065e-15 40 1 
        0
        spline 0 { ref 48 } F -20.399999999999999 F 20.399999999999999 F -0.40000000000000002 F 40.399999999999999 
        } 0 0 #
-134 coedge $-1 $132 $132 $127 $154 reversed $131 $135 #
-135 pcurve $-1 0 forward { exppc nurbs 2 open 3
        62.831853071795862 2 94.247779607693786 2 125.66370614359172 2 
        2.4492935982947065e-15 40 1 
        -19.999999999999996 40.000000000000007 0.70710678118654757 
        -20 20.000000000000004 1 
        -20.000000000000004 5.0242958677880797e-15 0.70710678118654757 
        0 0 1 
        0
        spline 0 { ref 48 } F -20.399999999999999 F 20.399999999999999 F -0.40000000000000002 F 40.399999999999999 
        } 0 0 #
-136 face $-1 $143 $138 $117 $-1 $137 forward single #
-137 spline-surface $-1 forward { exactsur nubs 1 1 open open none none 2 2
        -0.40000000000000002 1 40.399999999999999 1 
        -20.399999999999999 1 20.399999999999999 1 
        0.40000000000000002 -39.600000000000001 1 
        -40.399999999999999 -39.600000000000001 1 
        0.40000000000000002 -80.400000000000006 1 
        -40.399999999999999 -80.400000000000006 1 
        0
        0
        0
        0
        0
        0
        0
        F -0.40000000000000002 F 40.399999999999999 F -20.399999999999999 F 20.399999999999999 } F -0.40000000000000002 F 40.399999999999999 F -20.399999999999999 F 20.399999999999999 #
-138 loop $-1 $-1 $139 $136 #
-139 coedge $-1 $141 $141 $123 $158 forward $138 $140 #
-140 pcurve $-1 0 forward { exppc nurbs 2 open 3
        -125.66370614359172 2 -94.247779607693786 2 -62.831853071795862 2 
        0 0 1 
        5.0242958677880797e-15 -20.000000000000004 0.70710678118654757 
        20.000000000000004 -20 1 
        40.000000000000007 -19.999999999999996 0.70710678118654757 
        40 2.4492935982947065e-15 1 
        0
        spline 0 { ref 51 } F -0.40000000000000002 F 40.399999999999999 F -20.399999999999999 F 20.399999999999999 
        } 0 0 #
-141 coedge $-1 $139 $139 $150 $164 forward $138 $142 #
-142 pcurve $-1 0 forward { exppc nurbs 2 open 3
        -62.831853071795862 2 -31.415926535897931 2 -0 2 
        40 2.4492935982947065e-15 1 
        40 20 0.70710678118654757 
        20 20 1 
        0 19.999999999999996 0.70710678118654757 
        0 0 1 
        0
        spline 0 { ref 51 } F -0.40000000000000002 F 40.399999999999999 F -20.399999999999999 F 20.399999999999999 
        } 0 0 #
-143 face $-1 $-1 $145 $117 $-1 $144 forward single #
-144 spline-surface $-1 forward { exactsur nurbs 2 1 both open open none none 3 2
        -62.831853071795862 2 -31.415926535897931 2 -0 2 
        0 1 1 1 
        -40 -60 0 1 
        -40 -80 0 0.70710678118654757 
        -20 -80 0 1 
        0 -80 0 0.70710678118654757 
        0 -60 0 1 
        -40 -60 1 1 
        -40 -80 1 0.70710678118654757 
        -20 -80 1 1 
        0 -80 1 0.70710678118654757 
        0 -60 1 1 
        0
        0
        0
        0
        0
        0
        0
        F -62.831853071795862 F -0 F 0 F 1 } F -62.831853071795862 F -0 F 0 F 1 #
-145 loop $-1 $-1 $146 $143 #
-146 coedge $-1 $148 $152 $132 $162 forward $145 $147 #
-147 pcurve $-1 0 forward { exppc nubs 1 open 2
        -62.831853071795862 1 0 1 
        -62.831853071795862 0 
        -0 0 
        0
        spline 0 { ref 54 } F -62.831853071795862 F -0 F 0 F 1 
        } 0 0 #
-148 coedge $-1 $150 $146 $125 $156 forward $145 $149 #
-149 pcurve $-1 0 forward { exppc nubs 1 open 2
        0 1 1 1 
        -0 0 
        -0 1 
        0
        spline 0 { ref 54 } F -62.831853071795862 F -0 F 0 F 1 
        } 0 0 #
-150 coedge $-1 $152 $148 $141 $164 reversed $145 $151 #
-151 pcurve $-1 0 forward { exppc nubs 1 open 2
        0 1 62.831853071795862 1 
        -0 1 
        -62.831853071795862 1 
        0
        spline 0 { ref 54 } F -62.831853071795862 F -0 F 0 F 1 
        } 0 0 #
-152 coedge $-1 $146 $150 $121 $160 reversed $145 $153 #
-153 pcurve $-1 0 forward { exppc nubs 1 open 2
        -1 1 -0 1 
        -62.831853071795862 1 
        -62.831853071795862 0 
        0
        spline 0 { ref 54 } F -62.831853071795862 F -0 F 0 F 1 
        } 0 0 #
-154 edge $-1 $166 $170 $127 $155 forward #
-155 intcurve-curve $-1 forward { exactcur nurbs 2 open 3
        -125.66370614359172 2 -94.247779607693786 2 -62.831853071795862 2 
        0 -60 0 1 
        -5.0242958677880797e-15 -39.999999999999993 0 0.70710678118654757 
        -20.000000000000004 -40 0 1 
        -40.000000000000007 -40 0 0.70710678118654757 
        -40 -60 0 1 
        0
        null_surface
        null_surface
        nullbs
        nullbs
        I I
        0
        0
        0
        F -125.66370614359172 F -62.831853071795862 } F -125.66370614359172 F -62.831853071795862 #
-156 edge $-1 $166 $168 $148 $157 forward #
-157 intcurve-curve $-1 forward { exactcur nurbs 1 open 2
        0 1 1 1 
        0 -60 0 1 
        0 -60 1 1 
        0
        null_surface
        null_surface
        nullbs
        nullbs
        I I
        0
        0
        0
        F 0 F 1 } F 0 F 1 #
-158 edge $-1 $168 $172 $123 $159 forward #
-159 intcurve-curve $-1 forward { exactcur nurbs 2 open 3
        -125.66370614359172 2 -94.247779607693786 2 -62.831853071795862 2 
        0 -60 1 1 
        -5.0242958677880797e-15 -39.999999999999993 1 0.70710678118654757 
        -20.000000000000004 -40 1 1 
        -40.000000000000007 -40 1 0.70710678118654757 
        -40 -60 1 1 
        0
        null_surface
        null_surface
        nullbs
        nullbs
        I I
        0
        0
        0
        F -125.66370614359172 F -62.831853071795862 } F -125.66370614359172 F -62.831853071795862 #
-160 edge $-1 $170 $172 $121 $161 forward #
-161 intcurve-curve $-1 forward { exactcur nurbs 1 open 2
        0 1 1 1 
        -40 -60 0 1 
        -40 -60 1 1 
        0
        null_surface
        null_surface
        nullbs
        nullbs
        I I
        0
        0
        0
        F 0 F 1 } F 0 F 1 #
-162 edge $-1 $170 $166 $146 $163 forward #
-163 intcurve-curve $-1 forward { exactcur nurbs 2 open 3
        -62.831853071795862 2 -31.415926535897931 2 -0 2 
        -40 -60 0 1 
        -40 -80 0 0.70710678118654757 
        -20 -80 0 1 
        0 -80 0 0.70710678118654757 
        0 -60 0 1 
        0
        null_surface
        null_surface
        nullbs
        nullbs
        I I
        0
        0
        0
        F -62.831853071795862 F -0 } F -62.831853071795862 F -0 #
-164 edge $-1 $172 $168 $150 $165 forward #
-165 intcurve-curve $-1 forward { exactcur nurbs 2 open 3
        -62.831853071795862 2 -31.415926535897931 2 -0 2 
        -40 -60 1 1 
        -40 -80 1 0.70710678118654757 
        -20 -80 1 1 
        0 -80 1 0.70710678118654757 
        0 -60 1 1 
        0
        null_surface
        null_surface
        nullbs
        nullbs
        I I
        0
        0
        0
        F -62.831853071795862 F -0 } F -62.831853071795862 F -0 #
-166 vertex $-1 $154 $167 #
-167 point $-1 0 -60 0 #
-168 vertex $-1 $156 $169 #
-169 point $-1 0 -60 1 #
-170 vertex $-1 $160 $171 #
-171 point $-1 -40 -60 0 #
-172 vertex $-1 $160 $173 #
-173 point $-1 -40 -60 1 #
End-of-ACIS-data
