<?xml version="1.0" encoding="iso-8859-1"?>
<!-- Generator: Adobe Illustrator 20.1.0, SVG Export Plug-In . SVG Version: 6.00 Build 0)  -->
<svg version="1.1" xmlns="http://www.w3.org/2000/svg" xmlns:xlink="http://www.w3.org/1999/xlink" x="0px" y="0px"
	 viewBox="0 0 1200 675" style="enable-background:new 0 0 1200 675;" xml:space="preserve">
<g id="BACKGROUND">
	<rect style="opacity:0.5;" width="1200" height="675"/>
</g>
<g id="EDIT" style="opacity:0.5;">
	<g>
		<path style="fill:#FFFFFF;" d="M77.447,592.334v50.255H37.096v-50.255H77.447 M77.826,588.069H36.717c0,0-3.886,0-3.886,3.886
			v51.013c0,0,0,3.886,3.886,3.886H77.85c0,0,3.886,0,3.886-3.886v-51.013C81.712,591.955,81.712,588.069,77.826,588.069
			L77.826,588.069z"/>
	</g>
	<rect x="31.196" y="567.266" style="fill:none;" width="85.867" height="81.578"/>
	<g>
		<polyline style="fill:#FFFFFF;" points="40.792,638.324 56.028,633.514 111.85,577.691 101.425,567.266 45.602,623.089 
			40.792,638.324 		"/>
		<rect x="31.196" y="567.266" style="fill:none;" width="85.843" height="81.578"/>
	</g>
</g>
<g id="DOWNLOAD" style="opacity:0.5;">
	<g>
		<polygon style="fill:#FFFFFF;" points="135.781,601.456 199.921,601.456 167.863,633.633 		"/>
		<rect x="153.481" y="568.356" style="fill:#FFFFFF;" width="28.764" height="46.274"/>
		<polygon style="fill:#FFFFFF;" points="207.408,647.73 128.294,647.73 128.294,631.903 136.942,631.903 136.942,639.201 
			198.76,639.201 198.76,631.903 207.408,631.903 		"/>
		<rect x="128.294" y="574.872" style="fill:none;" width="79.114" height="72.882"/>
		<rect x="128.294" y="574.872" style="fill:none;" width="79.114" height="72.882"/>
	</g>
</g>
</svg>
