400 0 1 0        
7 Unknown 13 ACIS 5.0.1 NT 24 Thu Apr 20 00:50:43 2017
304.79999999999995 9.9999999999999995e-007 1e-010 
-0 body $-1 $2 $-1 $1 #                                                                                            
-1 transform $-1 1 0 0 0 1 0 0 0 1 0 0 0 1 0 0 0 #
-2 lump $-1 $-1 $3 $0 #
-3 shell $-1 $-1 $-1 $4 $-1 $2 #
-4 face $-1 $-1 $6 $3 $-1 $5 forward single #
-5 spline-surface $-1 forward { exactsur nubs 3 3 open open none none 2 2
        0 3 445.19132401783276 3 
        0 3 445.19132401783264 3 
        0 0 55.906567813460462 
        148.39710800594423 0 0 
        296.7942160118883 0 0 
        445.1913240178327 0 60.984965765399359 
        0 148.3971080059442 55.906567813460462 
        148.39710800594423 148.39710800594418 18.248961720226866 
        296.79421601188841 148.39710800594412 58.941468766456389 
        445.1913240178327 148.3971080059442 0 
        0 296.79421601188824 -100.11828640897346 
        148.3971080059442 296.79421601188807 -178.13235598926738 
        296.79421601188812 296.79421601188841 0 
        445.19132401783276 296.79421601188824 -31.387755575938442 
        0 445.19132401783259 -62.928214158623774 
        148.39710800594423 445.19132401783253 -62.928214158623774 
        296.7942160118883 445.19132401783236 0 
        445.1913240178327 445.19132401783259 28.30548661743137 
        0
        0
        0
        0
        0
        0
        0
        F 0 F 445.19132401783276 F 0 F 445.19132401783264 } F 0 F 445.19132401783276 F 0 F 445.19132401783264 #
-6 loop $-1 $-1 $7 $4 #
-7 coedge $-1 $9 $13 $-1 $15 forward $6 $8 #
-8 pcurve $-1 0 forward { exppc nubs 1 open 2
        0 1 445.19132401783276 1 
        0 0 
        445.19132401783276 0 
        0
        spline 0 { ref 0 } F 0 F 445.19132401783276 F 0 F 445.19132401783264 
        } 0 0 #
-9 coedge $-1 $11 $7 $-1 $17 forward $6 $10 #
-10 pcurve $-1 0 forward { exppc nubs 1 open 2
        0 1 445.19132401783264 1 
        445.19132401783276 0 
        445.19132401783276 445.19132401783264 
        0
        spline 0 { ref 0 } F 0 F 445.19132401783276 F 0 F 445.19132401783264 
        } 0 0 #
-11 coedge $-1 $13 $9 $-1 $19 forward $6 $12 #
-12 pcurve $-1 0 forward { exppc nubs 1 open 2
        -445.19132401783276 1 0 1 
        445.19132401783276 445.19132401783264 
        0 445.19132401783264 
        0
        spline 0 { ref 0 } F 0 F 445.19132401783276 F 0 F 445.19132401783264 
        } 0 0 #
-13 coedge $-1 $7 $11 $-1 $21 forward $6 $14 #
-14 pcurve $-1 0 forward { exppc nubs 1 open 2
        -445.19132401783264 1 0 1 
        0 445.19132401783264 
        0 0 
        0
        spline 0 { ref 0 } F 0 F 445.19132401783276 F 0 F 445.19132401783264 
        } 0 0 #
-15 edge $-1 $23 $25 $7 $16 forward #
-16 intcurve-curve $-1 forward { exactcur nubs 3 open 2
        0 3 445.19132401783276 3 
        0 0 55.906567813460462 
        148.39710800594423 0 0 
        296.7942160118883 0 0 
        445.1913240178327 0 60.984965765399359 
        0
        null_surface
        null_surface
        nullbs
        nullbs
        I I
        0
        0
        0
        F 0 F 445.19132401783276 } F 0 F 445.19132401783276 #
-17 edge $-1 $25 $27 $9 $18 forward #
-18 intcurve-curve $-1 forward { exactcur nubs 3 open 2
        0 3 445.19132401783264 3 
        445.1913240178327 0 60.984965765399359 
        445.1913240178327 148.3971080059442 0 
        445.19132401783276 296.79421601188824 -31.387755575938442 
        445.1913240178327 445.19132401783259 28.30548661743137 
        0
        null_surface
        null_surface
        nullbs
        nullbs
        I I
        0
        0
        0
        F 0 F 445.19132401783264 } F 0 F 445.19132401783264 #
-19 edge $-1 $27 $29 $11 $20 forward #
-20 intcurve-curve $-1 forward { exactcur nubs 3 open 2
        -445.19132401783276 3 -0 3 
        445.1913240178327 445.19132401783259 28.30548661743137 
        296.7942160118883 445.19132401783236 0 
        148.39710800594423 445.19132401783253 -62.928214158623774 
        0 445.19132401783259 -62.928214158623774 
        0
        null_surface
        null_surface
        nullbs
        nullbs
        I I
        0
        0
        0
        F -445.19132401783276 F -0 } F -445.19132401783276 F -0 #
-21 edge $-1 $29 $23 $13 $22 forward #
-22 intcurve-curve $-1 forward { exactcur nubs 3 open 2
        -445.19132401783264 3 -0 3 
        0 445.19132401783259 -62.928214158623774 
        0 296.79421601188824 -100.11828640897346 
        0 148.3971080059442 55.906567813460462 
        0 0 55.906567813460462 
        0
        null_surface
        null_surface
        nullbs
        nullbs
        I I
        0
        0
        0
        F -445.19132401783264 F -0 } F -445.19132401783264 F -0 #
-23 vertex $-1 $15 $24 #
-24 point $-1 0 0 55.906567813460462 #
-25 vertex $-1 $15 $26 #
-26 point $-1 445.1913240178327 0 60.984965765399359 #
-27 vertex $-1 $17 $28 #
-28 point $-1 445.1913240178327 445.19132401783259 28.30548661743137 #
-29 vertex $-1 $19 $30 #
-30 point $-1 0 445.19132401783259 -62.928214158623774 #
End-of-ACIS-data
